# xmcd
#
# Track frame offsets:
#	150
#	25462
#	50513
#	72491
#	94220
#	114429
#	135047
#	160157
#	174717
#	209542
#	229513
#	259287
#	285703
#	315465
#
# Disc length: 4570
#
# Revision: 1
# Processed by: cddbd v1.5.1PL0 Copyright (c) Steve Scherf et al.
# Submitted via: ExactAudioCopy v0.90b4
# Normalized: r0:DSETVAR1
#
DISCID=c611d80e
DTITLE=Various Artist - Highway 60's 70's
DYEAR=2003
DGENRE=Blues
TTITLE0=Alvin "Youngblood" Hart - Heartbreaker
TTITLE1=Eric Cales - Matt Tutor - Derek Trucks - Custard Pie
TTITLE2=Buddy Cuy - Strange Brew
TTITLE3=R.L. Burnside - Everything Is Broken
TTITLE4=Magic Slim and James Cotton - When The Levee Breaks
TTITLE5=Luther Allison - You Can't Always Get What You Want
TTITLE6=Isaac Hayes - Lay Lady Lay
TTITLE7=Taj Mahal - Mercedes Benz
TTITLE8=Eric Gales and Derek Trucks - Layla
TTITLE9=Larry McCray - All Along The Watchtower
TTITLE10=Mavis Staples - Gotta Serve Somebody
TTITLE11=Junior Wells - (I Can't Get No) Satisfaction
TTITLE12=Etta James - Ball And Chain
TTITLE13=Carl Weathersby - Lay Down Sally
EXTD=
EXTT0=
EXTT1=
EXTT2=
EXTT3=
EXTT4=
EXTT5=
EXTT6=
EXTT7=
EXTT8=
EXTT9=
EXTT10=
EXTT11=
EXTT12=
EXTT13=
PLAYORDER=
